<?xml version="1.0" encoding="iso-8859-1"?>
<!-- Generator: Adobe Illustrator 19.0.0, SVG Export Plug-In . SVG Version: 6.00 Build 0)  -->
<svg version="1.1" id="Capa_1" xmlns="http://www.w3.org/2000/svg" xmlns:xlink="http://www.w3.org/1999/xlink" x="0px" y="0px"
	 viewBox="0 0 512 512" style="enable-background:new 0 0 512 512;" xml:space="preserve">
<g>
	<path style="fill:#FDDC42;" d="M73.305,239.437h-0.768c-25.873-0.043-46.891,20.898-46.933,46.78
		c-0.043,23.433,17.237,43.29,40.448,46.49"/>
	<path style="fill:#FDDC42;" d="M445.956,332.792c25.66-3.567,43.563-27.247,40.004-52.907
		c-3.226-23.202-23.066-40.465-46.49-40.448h-0.768"/>
	<path style="fill:#FDDC42;" d="M443.737,315.725c0,103.68-84.053,187.733-187.733,187.733S68.27,419.405,68.27,315.725
		c1.451-40.013,9.079-79.565,22.613-117.248c3.157-9.301,6.656-18.688,10.411-27.989c1.707-4.352,3.499-8.619,5.376-12.885
		c3.328-7.68,6.912-15.36,10.667-22.869c7.023-14.234,14.857-28.058,23.467-41.387c2.133-3.328,4.267-6.485,6.485-9.643
		c1.109-1.621,2.219-3.157,3.328-4.693h0.171c5.99-8.439,12.484-16.503,19.456-24.149c5.658-6.178,11.665-12.015,18.005-17.493
		C206.689,19.9,230.805,9.66,256.174,8.525c7.987-0.009,15.932,1.203,23.552,3.584c24.354,8.414,45.978,23.279,62.549,43.008
		c7.168,7.868,13.867,16.162,20.053,24.832c0.085,0.085,0.085,0.085,0.085,0.171c0.085,0.256,0.256,0.512,0.341,0.768
		c0.853,1.195,1.621,2.304,2.475,3.499c10.965,15.957,20.745,32.7,29.269,50.091c5.888,11.776,11.29,23.782,16.213,36.011
		c3.755,9.301,7.253,18.603,10.411,27.989C434.649,236.16,442.278,275.712,443.737,315.725z"/>
</g>
<path style="fill:#FFEB49;" d="M409.945,298.658c-0.06,103.74-84.207,187.793-187.955,187.733
	c-22.878-0.017-45.568-4.207-66.935-12.373c-54.093-34.458-86.827-94.157-86.784-158.293c1.451-40.013,9.079-79.565,22.613-117.248
	c3.157-9.301,6.656-18.688,10.411-27.989c1.707-4.352,3.499-8.619,5.376-12.885c3.328-7.68,6.912-15.36,10.667-22.869
	c7.023-14.234,14.857-28.058,23.467-41.387c2.133-3.328,4.267-6.485,6.485-9.643c1.109-1.621,2.219-3.157,3.328-4.693h0.171
	c5.99-8.439,12.484-16.503,19.456-24.149c5.658-6.178,11.665-12.015,18.005-17.493C206.689,19.9,230.805,9.66,256.174,8.525
	c7.987-0.009,15.932,1.203,23.552,3.584c10.496,7.586,20.13,16.282,28.757,25.941c7.168,7.868,13.867,16.162,20.053,24.832
	c0.085,0.085,0.085,0.085,0.085,0.171c0.085,0.256,0.256,0.512,0.341,0.768c0.853,1.195,1.621,2.304,2.475,3.499
	c10.965,15.957,20.745,32.7,29.269,50.091c5.888,11.776,11.29,23.782,16.213,36.011c3.755,9.301,7.253,18.603,10.411,27.989
	C400.857,219.093,408.486,258.645,409.945,298.658z"/>
<path style="fill:#37474F;" d="M424.964,199.927c-0.102-0.495-0.247-0.981-0.427-1.451c-3.157-9.387-6.741-18.688-10.581-27.989
	c-5.035-12.203-10.556-24.209-16.555-36.011c-3.499-6.997-7.253-13.909-11.093-20.48c-5.76-10.18-12.023-20.062-18.773-29.611
	c-0.939-1.195-1.707-2.304-2.56-3.499c-0.085-0.256-0.256-0.512-0.341-0.768c0-0.085,0-0.085-0.085-0.171
	c-6.332-8.678-13.167-16.964-20.48-24.832C317.7,26.786,287.833,8.525,256.174,8.525c-5.734,0.009-11.443,0.58-17.067,1.707
	c-19.396,4.617-37.359,13.935-52.309,27.136c-6.426,5.495-12.553,11.332-18.347,17.493c-7.108,7.637-13.747,15.701-19.883,24.149
	h-0.171c-1.109,1.536-2.219,3.072-3.413,4.693c-2.219,3.157-4.437,6.315-6.571,9.643c-4.437,6.656-8.619,13.568-12.715,20.651
	c-3.925,6.741-7.68,13.653-11.264,20.736c-3.84,7.509-7.509,15.189-10.837,22.869c-1.963,4.267-3.755,8.533-5.547,12.885
	c-3.499,8.533-6.827,17.152-9.728,25.685c-0.341,0.768-0.597,1.536-0.853,2.304c-0.171,0.427-0.256,0.768-0.427,1.195
	c-0.512,1.536-1.024,3.072-1.451,4.523l1.109,0.341c1.877,0.171,3.84,0.256,5.717,0.256c29.005,0.026,53.137-22.281,55.381-51.2
	h35.072c9.361,0.128,16.845,7.834,16.717,17.195c-0.009,0.7-0.06,1.399-0.162,2.091c-0.538,5.257-0.393,10.564,0.427,15.787
	c3.729,22.707,20.156,41.25,42.24,47.701c2.893-0.862,5.717-1.946,8.448-3.243c-20.881-9.813-34.167-30.857-34.048-53.931
	c-0.017-4.215,0.418-8.422,1.28-12.544c1.698-7.671,8.525-13.116,16.384-13.056h135.851c2.185,28.877,26.249,51.191,55.211,51.2
	l1.195-0.427C425.988,202.914,425.476,201.378,424.964,199.927z"/>
<path style="fill:#607D8B;" d="M268.036,153.591h101.973c1.05,13.926,7.33,26.948,17.579,36.437
	c-2.304-6.571-4.864-13.056-7.509-19.541c-5.035-12.203-10.556-24.209-16.555-36.011c-3.499-6.997-7.253-13.909-11.093-20.48
	c-5.76-10.18-12.023-20.062-18.773-29.611c-0.939-1.195-1.707-2.304-2.56-3.499c-0.085-0.256-0.256-0.512-0.341-0.768
	c0-0.085,0-0.085-0.085-0.171c-6.332-8.678-13.167-16.964-20.48-24.832c-21.675-23.211-45.653-39.68-71.083-44.885
	c-19.396,4.617-37.359,13.935-52.309,27.136c-6.426,5.495-12.553,11.332-18.347,17.493c-7.108,7.637-13.747,15.701-19.883,24.149
	h-0.171c-1.109,1.536-2.219,3.072-3.413,4.693c-2.219,3.157-4.437,6.315-6.571,9.643c-4.437,6.656-8.619,13.568-12.715,20.651
	c-3.925,6.741-7.68,13.653-11.264,20.736c-3.84,7.509-7.509,15.189-10.837,22.869c-1.963,4.267-3.755,8.533-5.547,12.885
	c-3.499,8.533-6.827,17.152-9.728,25.685c-0.341,0.768-0.597,1.536-0.853,2.304c-0.171,0.427-0.256,0.768-0.427,1.195
	c-0.512,1.536-1.024,3.072-1.451,4.523l1.109,0.341c1.877,0.171,3.84,0.256,5.717,0.256c29.005,0.026,53.137-22.281,55.381-51.2
	h35.072c9.361,0.128,16.845,7.834,16.717,17.195c-0.009,0.7-0.06,1.399-0.162,2.091c-0.538,5.257-0.393,10.564,0.427,15.787
	c3.729,22.707,20.156,41.25,42.24,47.701c5.325,1.707,10.88,2.569,16.469,2.56c8.943,0.043,17.783-1.946,25.856-5.803
	c-20.881-9.813-34.167-30.857-34.048-53.931c-0.017-4.215,0.418-8.422,1.28-12.544C253.341,158.976,260.176,153.532,268.036,153.591
	z"/>
<path style="fill:#37474F;" d="M289.796,233.122c-8.073,3.857-16.913,5.845-25.856,5.803c-5.589,0.009-11.145-0.853-16.469-2.56
	c2.893-0.862,5.717-1.946,8.448-3.243c-20.881-9.813-34.167-30.857-34.048-53.931c-0.017-4.215,0.418-8.422,1.28-12.544
	c1.698-7.671,8.525-13.116,16.384-13.056h33.877c-7.859-0.06-14.686,5.385-16.384,13.056c-0.862,4.122-1.297,8.329-1.28,12.544
	C255.628,202.266,268.915,223.309,289.796,233.122z"/>
<path style="fill:#0377BC;" d="M230.404,311.458c-0.017,35.345-28.655,63.983-64,64c-4.267,0.009-8.533-0.418-12.715-1.28h-0.171
	c-34.637-7.134-56.934-41.003-49.801-75.639c5.163-25.054,24.738-44.638,49.801-49.801h0.171c4.181-0.862,8.448-1.289,12.715-1.28
	C201.74,247.475,230.387,276.122,230.404,311.458z"/>
<path style="fill:#02A9F4;" d="M204.804,311.458c-0.017,30.379-21.359,56.576-51.115,62.72h-0.171
	c-34.637-7.134-56.934-41.003-49.801-75.639c5.163-25.054,24.738-44.638,49.801-49.801h0.171
	C183.436,254.882,204.787,281.079,204.804,311.458z"/>
<path style="fill:#0377BC;" d="M409.604,311.458c-0.017,35.345-28.655,63.983-64,64c-4.267,0.009-8.533-0.418-12.715-1.28h-0.171
	c-34.637-7.134-56.934-41.003-49.801-75.639c5.163-25.054,24.738-44.638,49.801-49.801h0.171c4.181-0.862,8.448-1.289,12.715-1.28
	C380.94,247.475,409.587,276.122,409.604,311.458z"/>
<path style="fill:#02A9F4;" d="M384.004,311.458c-0.017,30.379-21.359,56.576-51.115,62.72h-0.171
	c-34.637-7.134-56.934-41.003-49.801-75.639c5.163-25.054,24.738-44.638,49.801-49.801h0.171
	C362.636,254.882,383.987,281.079,384.004,311.458z"/>
<path d="M257.949,512c-1.348,0-2.714,0-4.062,0c-108.194,0.009-196.932-87.586-198.076-196.19c0.017-9.028,0.58-18.039,1.69-26.889
	c3.285-27.785,9.412-55.381,18.202-81.988c0.998-3.2,2.133-6.622,3.26-9.958c0.265-0.828,0.418-1.271,0.597-1.732
	c2.807-8.329,6.332-17.63,10.598-27.981c1.835-4.463,3.669-8.849,5.683-13.227c3.2-7.356,6.921-15.215,10.982-23.202
	c3.584-7.04,7.339-13.943,11.486-21.12c3.456-5.956,8.055-13.713,13.005-21.12c1.681-2.654,3.533-5.299,5.393-7.962l1.263-1.809
	c1.314-1.766,2.364-3.191,3.422-4.71c0.333-0.478,0.708-0.905,1.109-1.297c6.084-8.269,12.706-16.265,19.686-23.791
	c6.016-6.374,12.407-12.45,19.063-18.133C201.433,12.228,227.997,1.186,255.799,0h0.017c32.333,0,63.991,16.572,94.481,49.263
	c7.518,8.141,14.618,16.742,21.12,25.6h-0.009c0.427,0.572,0.777,1.203,1.058,1.869c0.546,0.759,1.092,1.502,1.715,2.287
	c7.253,10.257,13.713,20.454,19.533,30.754c4.087,7.04,7.902,14.08,11.298,20.83c6.076,12.049,11.733,24.38,16.811,36.642
	c4.463,10.829,7.893,19.874,10.795,28.476c0.188,0.512,0.393,1.195,0.563,1.92c1.092,3.157,2.176,6.391,3.106,9.54
	c8.781,26.342,14.942,53.956,18.21,81.792c1.101,8.781,1.664,17.792,1.681,26.726c0,0.034,0,0.077,0,0.111
	C455.044,424.405,366.297,512,257.949,512z M255.91,494.925c0.623,0.009,1.246,0.009,1.869,0.009
	c99.183,0,180.267-80.017,181.35-179.251c-0.017-8.226-0.538-16.521-1.562-24.661c-3.14-26.735-9.045-53.205-17.545-78.729
	c-0.998-3.337-2.065-6.477-3.123-9.54c-0.137-0.384-0.239-0.777-0.316-1.169c-2.91-8.661-6.212-17.365-10.522-27.819
	c-4.907-11.87-10.394-23.808-16.273-35.49c-3.251-6.46-6.912-13.193-10.863-20.028c-5.581-9.882-11.75-19.601-18.355-28.979
	c-0.503-0.597-1.203-1.553-1.92-2.543l-0.555-0.768c-0.341-0.478-0.64-0.981-0.887-1.519c-0.051-0.102-0.094-0.196-0.137-0.307
	c-5.965-8.038-12.45-15.863-19.268-23.253c-27.11-29.065-54.579-43.819-81.63-43.819c-23.407,1.007-46.114,10.453-63.582,26.59
	c-6.434,5.504-12.39,11.162-17.937,17.041c-6.801,7.322-13.278,15.189-19.191,23.322c-0.282,0.375-0.58,0.734-0.913,1.067
	c-0.887,1.246-1.783,2.466-2.739,3.738l-1.109,1.604c-1.724,2.458-3.43,4.907-5.086,7.501c-4.796,7.168-9.216,14.626-12.535,20.343
	c-3.985,6.895-7.603,13.542-11.042,20.301c-3.908,7.68-7.475,15.232-10.615,22.434c-1.988,4.326-3.738,8.508-5.487,12.766
	c-4.13,10.01-7.526,18.978-10.394,27.426c-0.265,0.819-0.401,1.237-0.572,1.655c-0.939,2.807-2.031,6.093-3.029,9.293
	c-8.474,25.66-14.353,52.13-17.51,78.822c-1.015,8.235-1.536,16.546-1.553,24.772c1.05,99.149,82.15,179.2,181.18,179.2
	C254.672,494.933,255.295,494.933,255.91,494.925z"/>
<path d="M261.917,247.458c-0.179,0-0.367,0-0.546,0c-33.399-0.333-61.602-24.482-67.072-57.421
	c-0.939-6.042-1.084-12.092-0.461-18.074c0.077-0.589,0.102-0.913,0.102-1.246c0.034-2.278-0.819-4.42-2.389-6.042
	c-1.57-1.621-3.686-2.534-5.948-2.56h-27.571c-5.99,29.278-32.119,51.2-62.66,51.2c-0.017,0-0.034,0-0.043,0
	c-2.125,0-4.352-0.094-6.485-0.29c-4.693-0.427-8.158-4.582-7.731-9.267c0.427-4.685,4.582-8.09,9.267-7.731
	c1.63,0.154,3.499,0.077,4.975,0.222c24.371,0,44.902-19.021,46.754-43.315c0.341-4.446,4.045-7.885,8.508-7.885h35.106
	c6.938,0.094,13.312,2.842,18.065,7.74c4.753,4.89,7.313,11.341,7.219,18.15c-0.009,1.015-0.085,2.039-0.23,3.055
	c-0.444,4.25-0.324,8.823,0.367,13.329c4.096,24.661,25.293,42.812,50.381,43.059c2.031,0,3.959-0.085,5.922-0.307
	c-14.268-12.757-22.835-31.258-22.793-50.91c0-4.77,0.495-9.583,1.485-14.276c2.586-11.563,12.945-19.84,24.687-19.84
	c0.06,0,0.111,0,0.171,0h101.828c4.454,0,8.166,3.439,8.508,7.885c1.852,24.294,22.383,43.315,46.746,43.315
	c0.034,0,0.043,0,0.043,0c4.71,0,8.533,3.814,8.533,8.533c0,4.719-3.814,8.533-8.525,8.533c-0.017,0-0.034,0-0.051,0
	c-30.549,0-56.678-21.922-62.66-51.2h-94.481c-4.13-0.273-7.287,2.671-8.115,6.4c-0.725,3.43-1.101,7.049-1.101,10.658
	c-0.034,19.703,11.435,37.837,29.235,46.217c2.987,1.408,4.881,4.395,4.898,7.68c0.017,3.285-1.86,6.289-4.821,7.723
	C281.996,245.163,271.935,247.458,261.917,247.458z"/>
<path d="M64.883,349.175c-27.307-3.755-47.863-27.392-47.821-54.955c0.051-30.507,24.892-55.287,55.39-55.287
	c0.026,0,0.06,0,0.085,0L73.288,256h-0.751c-0.017,0-0.043,0-0.06,0c-21.12,0-38.306,17.152-38.34,38.255
	c-0.026,19.063,14.191,35.413,33.084,38.025L64.883,349.175z"/>
<path d="M447.125,349.269l-2.347-16.896c10.146-1.417,19.149-6.69,25.327-14.865c6.187-8.175,8.806-18.27,7.398-28.416
	C474.884,270.217,458.551,256,439.504,256c-0.009,0-0.017,0-0.026,0l-0.777-8.533v-8.533c0.009,0,0.026,0,0.043,0
	c28.279,0,51.883,20.548,55.654,47.812c2.039,14.669-1.749,29.244-10.684,41.062C474.781,339.601,461.794,347.23,447.125,349.269z"
	/>
<path d="M166.404,383.991c-39.996,0-72.533-32.538-72.533-72.533s32.538-72.533,72.533-72.533s72.533,32.538,72.533,72.533
	S206.399,383.991,166.404,383.991z M166.404,255.991c-30.583,0-55.467,24.883-55.467,55.467s24.883,55.467,55.467,55.467
	s55.467-24.883,55.467-55.467S196.987,255.991,166.404,255.991z"/>
<path d="M345.604,383.991c-39.996,0-72.533-32.538-72.533-72.533s32.538-72.533,72.533-72.533s72.533,32.538,72.533,72.533
	S385.591,383.991,345.604,383.991z M345.604,255.991c-30.583,0-55.467,24.883-55.467,55.467s24.883,55.467,55.467,55.467
	s55.467-24.883,55.467-55.467S376.187,255.991,345.604,255.991z"/>
<path d="M170.67,332.792c-4.71,0-8.533-3.814-8.533-8.533v-25.6c0-4.719,3.823-8.533,8.533-8.533c4.71,0,8.533,3.814,8.533,8.533
	v25.6C179.204,328.977,175.381,332.792,170.67,332.792z"/>
<path d="M228.339,304.29c-1.724,0-3.465-0.529-4.975-1.604c-3.823-2.748-4.693-8.081-1.946-11.913
	c6.647-9.242,16.495-15.334,27.725-17.169s22.502,0.828,31.735,7.475c3.738,2.688,6.997,5.948,9.694,9.685
	c2.748,3.823,1.894,9.156-1.937,11.913c-3.814,2.756-9.156,1.886-11.913-1.937c-1.613-2.244-3.575-4.198-5.811-5.82
	c-5.538-3.985-12.288-5.572-19.021-4.471c-6.733,1.092-12.629,4.753-16.614,10.283C233.612,303.061,230.992,304.29,228.339,304.29z"
	/>
<rect x="69.729" y="247.467" transform="matrix(-0.7071 -0.7071 0.7071 -0.7071 -20.7809 503.3929)" width="48.273" height="17.067"/>
<rect x="409.603" y="231.854" transform="matrix(-0.7071 -0.7071 0.7071 -0.7071 532.7916 732.6697)" width="17.067" height="48.273"/>
<path d="M332.795,442.052c-1.143,0-2.313-0.23-3.43-0.725c-7.151-3.149-14.609-5.811-22.17-7.893
	c-8.038-2.227-16.324-3.908-24.636-5.018c-17.613-2.33-35.49-2.33-53.12,0c-8.32,1.109-16.606,2.79-24.636,5.018
	c-7.569,2.082-15.019,4.745-22.17,7.893c-4.309,1.903-9.344-0.06-11.247-4.369c-1.903-4.309,0.051-9.353,4.369-11.247
	c7.902-3.482,16.145-6.417,24.508-8.721c8.772-2.423,17.835-4.275,26.931-5.487c19.115-2.534,38.502-2.534,57.617,0
	c9.079,1.212,18.142,3.046,26.931,5.487c8.354,2.313,16.589,5.239,24.499,8.721c4.309,1.903,6.263,6.938,4.369,11.247
	C339.204,440.149,336.072,442.052,332.795,442.052z"/>
<path d="M179.212,460.792c-2.756,0-5.461-1.331-7.108-3.797c-16.572-24.849-6.554-45.815,1.067-53.436
	c3.337-3.337,8.73-3.337,12.066,0c3.311,3.311,3.337,8.67,0.06,11.998c-1.271,1.357-11.52,13.184,1.007,31.966
	c2.611,3.925,1.553,9.216-2.364,11.836C182.48,460.322,180.833,460.792,179.212,460.792z"/>
<path d="M332.795,460.792c-1.621,0-3.268-0.469-4.727-1.434c-3.925-2.62-4.983-7.91-2.364-11.836
	c13.03-19.55,1.186-31.778,1.067-31.898c-3.337-3.337-3.337-8.73,0-12.066c3.337-3.337,8.73-3.337,12.066,0
	c7.62,7.62,17.63,28.587,1.067,53.436C338.256,459.46,335.551,460.792,332.795,460.792z"/>
<path d="M196.27,315.725c-0.887,0-1.801-0.145-2.697-0.444l-51.2-17.067c-4.471-1.485-6.886-6.315-5.393-10.795
	c1.485-4.463,6.315-6.895,10.795-5.393l51.2,17.067c4.471,1.485,6.886,6.315,5.393,10.795
	C203.174,313.464,199.846,315.725,196.27,315.725z"/>
<path d="M341.337,332.792c-4.719,0-8.533-3.814-8.533-8.533v-25.6c0-4.719,3.814-8.533,8.533-8.533c4.719,0,8.533,3.814,8.533,8.533
	v25.6C349.87,328.977,346.047,332.792,341.337,332.792z"/>
<path d="M315.737,315.725c-3.575,0-6.903-2.261-8.09-5.837c-1.493-4.471,0.922-9.31,5.393-10.795l51.2-17.067
	c4.506-1.502,9.301,0.922,10.795,5.393c1.493,4.471-0.922,9.31-5.393,10.795l-51.2,17.067
	C317.538,315.58,316.624,315.725,315.737,315.725z"/>
<g>
</g>
<g>
</g>
<g>
</g>
<g>
</g>
<g>
</g>
<g>
</g>
<g>
</g>
<g>
</g>
<g>
</g>
<g>
</g>
<g>
</g>
<g>
</g>
<g>
</g>
<g>
</g>
<g>
</g>
</svg>
